# xmcd
#
# Track frame offsets:
#	150
#	13812
#	29360
#	48955
#	63992
#	85935
#	99867
#	112857
#	129587
#	143102
#
# Disc length: 2138 seconds
#
# Revision: 15
# Processed by: cddbd v1.5.2PL0 Copyright (c) Steve Scherf et al.
# Submitted via: EZCDAudioConverter 6.0.5.1
#
DISCID=7408580a,7908580a
DTITLE=Brooks and Dunn - Waitin' On Sundown
DYEAR=1994
DGENRE=Country
TTITLE0=Little Miss Honky Tonk
TTITLE1=She's Not The Cheatin' Kind
TTITLE2=Silver And Gold
TTITLE3=I'll Never Forgive My Heart
TTITLE4=You're Gonna Miss Me When I'm Gone
TTITLE5=My Kind Of Crazy
TTITLE6=Whiskey Under The Bridge
TTITLE7=If That's The Way You Want It
TTITLE8=She's The Kind Of Trouble
TTITLE9=A Few Good Rides Away
EXTD=
EXTT0=
EXTT1=
EXTT2=
EXTT3=
EXTT4=
EXTT5=
EXTT6=
EXTT7=
EXTT8=
EXTT9=
PLAYORDER=
